<?xml version="1.0" encoding="utf-8"?>
<!-- Generator: Adobe Illustrator 25.3.1, SVG Export Plug-In . SVG Version: 6.00 Build 0)  -->
<svg version="1.1" id="Layer_1" xmlns="http://www.w3.org/2000/svg" xmlns:xlink="http://www.w3.org/1999/xlink" x="0px" y="0px"
	 viewBox="0 0 2314 572" style="enable-background:new 0 0 2314 572;" xml:space="preserve">
<style type="text/css">
	.st0{clip-path:url(#SVGID_2_);}
	.st1{fill:none;stroke:#FF0000;stroke-width:3.4375;stroke-linejoin:round;stroke-miterlimit:10;}
	.st2{fill:#FF0000;}
	.st3{font-family:'ArialMT';}
	.st4{font-size:55px;}
	.st5{fill:none;stroke:#000000;stroke-width:3.4375;stroke-linejoin:round;stroke-miterlimit:10;}
	.st6{fill:none;stroke:#000000;stroke-width:4.5833;stroke-miterlimit:8;}
	.st7{clip-path:url(#SVGID_4_);}
	.st8{clip-path:url(#SVGID_6_);}
	.st9{clip-path:url(#SVGID_8_);}
	.st10{clip-path:url(#SVGID_10_);}
	.st11{clip-path:url(#SVGID_12_);}
	.st12{clip-path:url(#SVGID_14_);}
	.st13{clip-path:url(#SVGID_16_);}
	.st14{clip-path:url(#SVGID_18_);}
	.st15{clip-path:url(#SVGID_20_);}
	.st16{clip-path:url(#SVGID_22_);}
	.st17{clip-path:url(#SVGID_24_);}
	.st18{clip-path:url(#SVGID_26_);}
	.st19{fill:none;stroke:#000000;stroke-width:2.2917;stroke-miterlimit:8;}
	.st20{clip-path:url(#SVGID_28_);}
	.st21{clip-path:url(#SVGID_30_);}
	.st22{clip-path:url(#SVGID_32_);}
	.st23{clip-path:url(#SVGID_34_);}
	.st24{fill:#FFFFFF;stroke:#2D0AFE;stroke-width:4.5833;stroke-miterlimit:8;}
	.st25{fill:#2D0AFE;}
	.st26{clip-path:url(#SVGID_36_);}
	.st27{clip-path:url(#SVGID_38_);}
	.st28{clip-path:url(#SVGID_40_);}
	.st29{clip-path:url(#SVGID_42_);}
	.st30{clip-path:url(#SVGID_44_);}
	.st31{clip-path:url(#SVGID_46_);}
	.st32{clip-path:url(#SVGID_48_);}
	.st33{clip-path:url(#SVGID_50_);}
	.st34{clip-path:url(#SVGID_52_);}
	.st35{clip-path:url(#SVGID_54_);}
	.st36{clip-path:url(#SVGID_56_);}
	.st37{clip-path:url(#SVGID_58_);}
	.st38{clip-path:url(#SVGID_60_);}
	.st39{clip-path:url(#SVGID_62_);}
</style>
<g>
	<defs>
		<rect id="SVGID_1_" y="1" width="2314" height="572"/>
	</defs>
	<clipPath id="SVGID_2_">
		<use xlink:href="#SVGID_1_"  style="overflow:visible;"/>
	</clipPath>
	<g transform="translate(-8 -132)" class="st0">
		<rect x="223.5" y="297.5" class="st1" width="290" height="166"/>
		<text transform="matrix(1 0 0 1 302.012 364)" class="st2 st3 st4">Mode</text>
		<text transform="matrix(1 0 0 1 261.3349 430)" class="st2 st3 st4">Switching</text>
		<path d="M45,381.1l155.8,0v-2.3l-155.8,0L45,381.1z M196.2,393.8l27.5-13.8l-27.5-13.7V393.8z"/>
		<path d="M513,381.1l35.9,0v-2.3l-35.9,0V381.1z M544.3,393.8l27.5-13.8l-27.5-13.7L544.3,393.8z"/>
		<rect x="1240.5" y="330.5" class="st5" width="186" height="100"/>
		<text transform="matrix(1 0 0 1 1282.1 398)" class="st3 st4">SMC</text>
		<path class="st6" d="M572.5,380.5c0-13.8,11-25,24.5-25s24.5,11.2,24.5,25s-11,25-24.5,25S572.5,394.3,572.5,380.5z"/>
		<rect x="1513.5" y="297.5" class="st5" width="272" height="166"/>
		<text transform="matrix(1 0 0 1 1552.5601 364)" class="st3 st4">Pressrue</text>
		<text transform="matrix(1 0 0 1 1566.6538 430)" class="st3 st4">Control</text>
		<rect x="1877.5" y="297.5" class="st5" width="282" height="166"/>
		<text transform="matrix(1 0 0 1 1973.13 364)" class="st3 st4">Soft</text>
		<text transform="matrix(1 0 0 1 1920.6509 430)" class="st3 st4">Actuator</text>
		<path d="M1426,378.9h64.2v2.3H1426V378.9z M1485.6,366.2l27.5,13.8l-27.5,13.8V366.2z"/>
		<path d="M1785,378.9h69v2.3h-69V378.9z M1849.4,366.2l27.5,13.8l-27.5,13.8V366.2z"/>
		<path d="M2159,381.1l112,0v-2.3l-112,0V381.1z M2266.4,393.7l27.5-13.8l-27.5-13.7V393.7z"/>
		<g>
			<defs>
				<rect id="SVGID_3_" x="7" y="304" width="197" height="64"/>
			</defs>
			<clipPath id="SVGID_4_">
				<use xlink:href="#SVGID_3_"  style="overflow:visible;"/>
			</clipPath>
			<g transform="matrix(0.000360892 0 0 0.000360892 7.9999 285)" class="st7">
				<g>
					<defs>
						<rect id="SVGID_5_" x="8" y="305" width="196" height="63"/>
					</defs>
					<clipPath id="SVGID_6_">
						<use xlink:href="#SVGID_5_"  style="overflow:visible;"/>
					</clipPath>
					<g transform="matrix(1.00224 0 0 1 -0.000697728 0.0245694)" class="st8">
						<g transform="scale(3636.81 3636.81)">
							
								<image style="overflow:visible;enable-background:new    ;" width="149" height="48" id="img2" xlink:href="13C4F468.png"  transform="matrix(1.3125 0 0 1.3125 7.9827 304.9754)">
							</image>
						</g>
					</g>
				</g>
			</g>
		</g>
		<g>
			<defs>
				<rect id="SVGID_7_" x="-10.3" y="266.1" width="37" height="38"/>
			</defs>
			<clipPath id="SVGID_8_">
				<use xlink:href="#SVGID_7_"  style="overflow:visible;"/>
			</clipPath>
			<g transform="matrix(0.000360892 0 0 0.000360892 519 311)" class="st9">
				<g>
					<defs>
						<rect id="SVGID_9_" x="-10.3" y="266.1" width="37" height="38"/>
					</defs>
					<clipPath id="SVGID_10_">
						<use xlink:href="#SVGID_9_"  style="overflow:visible;"/>
					</clipPath>
					<g transform="matrix(1.00846 0 0 1 0.0316717 -0.00486063)" class="st10">
						<g transform="scale(3630.83 3630.83)">
							
								<image style="overflow:visible;enable-background:new    ;" width="28" height="29" id="img5" xlink:href="13C4F469.png"  transform="matrix(4.730319e-04 0 0 4.730319e-04 8.0872 285.1244)">
							</image>
						</g>
					</g>
				</g>
			</g>
		</g>
		<g>
			<defs>
				<rect id="SVGID_11_" x="501.5" y="309.1" width="35" height="4"/>
			</defs>
			<clipPath id="SVGID_12_">
				<use xlink:href="#SVGID_11_"  style="overflow:visible;"/>
			</clipPath>
			<g transform="matrix(0.000360892 0 0 0.000360892 554 421)" class="st11">
				<g>
					<defs>
						<rect id="SVGID_13_" x="502" y="309.1" width="34" height="4"/>
					</defs>
					<clipPath id="SVGID_14_">
						<use xlink:href="#SVGID_13_"  style="overflow:visible;"/>
					</clipPath>
					<g transform="matrix(1 0 0 1.01955 0.0135387 0.0405495)" class="st12">
						<g transform="scale(3623.5 3623.5)">
							
								<image style="overflow:visible;enable-background:new    ;" width="26" height="3" id="img8" xlink:href="13C4F46F.png"  transform="matrix(1.704198e-07 0 0 1.704198e-07 518.9894 305.0977)">
							</image>
						</g>
					</g>
				</g>
			</g>
		</g>
		<g>
			<defs>
				<rect id="SVGID_15_" x="539.7" y="406.1" width="29" height="30"/>
			</defs>
			<clipPath id="SVGID_16_">
				<use xlink:href="#SVGID_15_"  style="overflow:visible;"/>
			</clipPath>
			<g transform="matrix(0.000360892 0 0 0.000360892 637 316)" class="st13">
				<g>
					<defs>
						<rect id="SVGID_17_" x="540.7" y="407.1" width="27" height="28"/>
					</defs>
					<clipPath id="SVGID_18_">
						<use xlink:href="#SVGID_17_"  style="overflow:visible;"/>
					</clipPath>
					<g transform="matrix(1.02101 0 0 1 0.0728205 -0.0300515)" class="st14">
						<g transform="scale(4310.33 4310.33)">
							
								<image style="overflow:visible;enable-background:new    ;" width="17" height="18" id="img11" xlink:href="13C4F46A.png"  transform="matrix(7.318287e-11 0 0 7.318286e-11 542.7122 421.1424)">
							</image>
						</g>
					</g>
				</g>
			</g>
		</g>
		<rect x="528.2" y="266.2" class="st5" width="218" height="100"/>
		<g>
			<defs>
				<rect id="SVGID_19_" x="573.2" y="288.2" width="128" height="56"/>
			</defs>
			<clipPath id="SVGID_20_">
				<use xlink:href="#SVGID_19_"  style="overflow:visible;"/>
			</clipPath>
			<g transform="matrix(0.000360892 0 0 0.000360892 795 155)" class="st15">
				<g>
					<defs>
						<rect id="SVGID_21_" x="573.2" y="288.7" width="128" height="55"/>
					</defs>
					<clipPath id="SVGID_22_">
						<use xlink:href="#SVGID_21_"  style="overflow:visible;"/>
					</clipPath>
					<g transform="matrix(1 0 0 1.01658 -0.0579945 0.000821196)" class="st16">
						<g transform="scale(3656.45 3656.45)">
							
								<image style="overflow:visible;enable-background:new    ;" width="97" height="41" id="img14" xlink:href="13C4F46B.png"  transform="matrix(2.241123e-14 0 0 2.241123e-14 637.2581 310.9949)">
							</image>
						</g>
					</g>
				</g>
			</g>
		</g>
		<g>
			<defs>
				<rect id="SVGID_23_" x="783.2" y="134.6" width="24" height="41"/>
			</defs>
			<clipPath id="SVGID_24_">
				<use xlink:href="#SVGID_23_"  style="overflow:visible;"/>
			</clipPath>
			<g transform="matrix(0.000360892 0 0 0.000360892 634 424)" class="st17">
				<g>
					<defs>
						<rect id="SVGID_25_" x="783.7" y="135.6" width="23" height="39"/>
					</defs>
					<clipPath id="SVGID_26_">
						<use xlink:href="#SVGID_25_"  style="overflow:visible;"/>
					</clipPath>
					<g transform="matrix(1 0 0 1.05248 -0.073109 0.0908647)" class="st18">
						<g transform="scale(3540.61 3540.61)">
							
								<image style="overflow:visible;enable-background:new    ;" width="18" height="29" id="img17" xlink:href="13C4F466.png"  transform="matrix(7.834141e-18 0 0 7.834141e-18 795.3032 147.2933)">
							</image>
						</g>
					</g>
				</g>
			</g>
		</g>
		<path class="st19" d="M634.3,424.1L634.3,424.1"/>
		<path d="M634.3,424.1L634.3,424.1L634.3,424.1L634.3,424.1L634.3,424.1z M634.3,424.1L634.3,424.1L634.3,424.1L634.3,424.1z"/>
		<path class="st19" d="M634.3,424.1L634.3,424.1"/>
		<g>
			<defs>
				<rect id="SVGID_27_" x="591.8" y="398.6" width="85" height="51"/>
			</defs>
			<clipPath id="SVGID_28_">
				<use xlink:href="#SVGID_27_"  style="overflow:visible;"/>
			</clipPath>
			<g transform="matrix(0.000360892 0 0 0.000360892 2184 306)" class="st20">
				<g>
					<defs>
						<rect id="SVGID_29_" x="592.8" y="399.6" width="83" height="49"/>
					</defs>
					<clipPath id="SVGID_30_">
						<use xlink:href="#SVGID_29_"  style="overflow:visible;"/>
					</clipPath>
					<g transform="matrix(1 0 0 1.00521 -0.0612571 -0.0348455)" class="st21">
						<g transform="scale(3650.57 3650.57)">
							
								<image style="overflow:visible;enable-background:new    ;" width="63" height="37" id="img20" xlink:href="13C4F467.png"  transform="matrix(2.915957e-21 0 0 2.915957e-21 634.3483 421.8928)">
							</image>
						</g>
					</g>
				</g>
			</g>
		</g>
		<rect x="2075.2" y="256.2" class="st5" width="218" height="100"/>
		<g>
			<defs>
				<rect id="SVGID_31_" x="2169.2" y="286.7" width="30" height="39"/>
			</defs>
			<clipPath id="SVGID_32_">
				<use xlink:href="#SVGID_31_"  style="overflow:visible;"/>
			</clipPath>
			<g transform="matrix(0.000360892 0 0 0.000360892 846 341)" class="st22">
				<g>
					<defs>
						<rect id="SVGID_33_" x="2170.2" y="287.2" width="28" height="38"/>
					</defs>
					<clipPath id="SVGID_34_">
						<use xlink:href="#SVGID_33_"  style="overflow:visible;"/>
					</clipPath>
					<g transform="matrix(1.01755 0 0 1 0.0403498 0.00952148)" class="st23">
						<g transform="scale(3630.86 3630.86)">
							
								<image style="overflow:visible;enable-background:new    ;" width="21" height="29" id="img23" xlink:href="13C4F478.png"  transform="matrix(1.046977e-24 0 0 1.046977e-24 2146.5173 306.1436)">
							</image>
						</g>
					</g>
				</g>
			</g>
		</g>
		<path d="M846.8,341.1L846.8,341.1L846.8,341.1L846.8,341.1L846.8,341.1z M846.8,341.1L846.8,341.1L846.8,341.1L846.8,341.1z"/>
		<path class="st6" d="M846.8,341.1C846.8,341.1,846.8,341.1,846.8,341.1S846.8,341.1,846.8,341.1S846.8,341.1,846.8,341.1
			S846.8,341.1,846.8,341.1z"/>
		<rect x="739.8" y="291.1" class="st24" width="214" height="100"/>
		<text transform="matrix(2.884414e-28 0 0 2.884414e-28 846.7885 341.1105)" class="st25 st3 st4">NDOB</text>
		<path d="M846.8,341.1L846.8,341.1L846.8,341.1L846.8,341.1L846.8,341.1z M846.8,341.1L846.8,341.1L846.8,341.1L846.8,341.1z"/>
		<g>
			<defs>
				<rect id="SVGID_35_" x="828.3" y="322.1" width="37" height="38"/>
			</defs>
			<clipPath id="SVGID_36_">
				<use xlink:href="#SVGID_35_"  style="overflow:visible;"/>
			</clipPath>
			<g transform="matrix(0.000360892 0 0 0.000360892 982 311)" class="st26">
				<g>
					<defs>
						<rect id="SVGID_37_" x="828.3" y="322.1" width="37" height="38"/>
					</defs>
					<clipPath id="SVGID_38_">
						<use xlink:href="#SVGID_37_"  style="overflow:visible;"/>
					</clipPath>
					<g transform="matrix(1.00846 0 0 1 -0.0870472 -0.00486063)" class="st27">
						<g transform="scale(3630.83 3630.83)">
							
								<image style="overflow:visible;enable-background:new    ;" width="28" height="29" id="img5_2_" xlink:href="13C4F47B.png"  transform="matrix(3.779556e-28 0 0 3.779556e-28 839.7711 341.1154)">
							</image>
						</g>
					</g>
				</g>
			</g>
		</g>
		<path d="M982.3,311.1L982.3,311.1L982.3,311.1L982.3,311.1L982.3,311.1z M982.3,311.1L982.3,311.1L982.3,311.1L982.3,311.1z"/>
		<path class="st25" d="M982.3,311.1L982.3,311.1L982.3,311.1L982.3,311.1L982.3,311.1z M982.3,311.1L982.3,311.1L982.3,311.1
			L982.3,311.1z"/>
		<path class="st25" d="M982.3,311.1L982.3,311.1L982.3,311.1L982.3,311.1L982.3,311.1L982.3,311.1L982.3,311.1L982.3,311.1z
			 M982.3,311.1L982.3,311.1L982.3,311.1L982.3,311.1z"/>
		<g>
			<defs>
				<rect id="SVGID_39_" x="963.8" y="290.6" width="37" height="41"/>
			</defs>
			<clipPath id="SVGID_40_">
				<use xlink:href="#SVGID_39_"  style="overflow:visible;"/>
			</clipPath>
			<g transform="matrix(0.000360892 0 0 0.000360892 1072 271)" class="st28">
				<g>
					<defs>
						<rect id="SVGID_41_" x="963.8" y="291.6" width="37" height="39"/>
					</defs>
					<clipPath id="SVGID_42_">
						<use xlink:href="#SVGID_41_"  style="overflow:visible;"/>
					</clipPath>
					<g transform="matrix(1 0 0 1.01772 -0.032848 0.0457875)" class="st29">
						<g transform="scale(3661.54 3661.54)">
							
								<image style="overflow:visible;enable-background:new    ;" width="28" height="29" id="img5_3_" xlink:href="DB775357.png"  transform="matrix(1.375960e-31 0 0 1.375960e-31 982.3386 305.661)">
							</image>
						</g>
					</g>
				</g>
			</g>
		</g>
		<g>
			<defs>
				<rect id="SVGID_43_" x="1056.9" y="258.1" width="31" height="26"/>
			</defs>
			<clipPath id="SVGID_44_">
				<use xlink:href="#SVGID_43_"  style="overflow:visible;"/>
			</clipPath>
			<g transform="matrix(0.000360892 0 0 0.000360892 1144 318)" class="st30">
				<g>
					<defs>
						<rect id="SVGID_45_" x="1056.9" y="259.1" width="31" height="24"/>
					</defs>
					<clipPath id="SVGID_46_">
						<use xlink:href="#SVGID_45_"  style="overflow:visible;"/>
					</clipPath>
					<g transform="matrix(1.01086 0 0 1 -0.177734 0.0194425)" class="st31">
						<g transform="scale(3694.56 3694.56)">
							
								<image style="overflow:visible;enable-background:new    ;" width="23" height="18" id="img30" xlink:href="DB775355.png"  transform="matrix(5.012011e-35 0 0 5.012011e-35 1061.0098 271.0929)">
							</image>
						</g>
					</g>
				</g>
			</g>
		</g>
		<path d="M1144.4,318.1L1144.4,318.1L1144.4,318.1L1144.4,318.1L1144.4,318.1L1144.4,318.1L1144.4,318.1L1144.4,318.1z
			 M1144.4,318.1L1144.4,318.1L1144.4,318.1L1144.4,318.1z"/>
		<path d="M1144.4,318.1L1144.4,318.1L1144.4,318.1L1144.4,318.1L1144.4,318.1L1144.4,318.1L1144.4,318.1L1144.4,318.1z
			 M1144.4,318.1L1144.4,318.1L1144.4,318.1L1144.4,318.1z"/>
		<path class="st2" d="M1144.4,318.1L1144.4,318.1L1144.4,318.1L1144.4,318.1L1144.4,318.1L1144.4,318.1L1144.4,318.1L1144.4,318.1z
			 M1144.4,318.1L1144.4,318.1L1144.4,318.1L1144.4,318.1L1144.4,318.1z M1144.4,318.1L1144.4,318.1L1144.4,318.1L1144.4,318.1
			L1144.4,318.1z M1144.4,318.1L1144.4,318.1L1144.4,318.1L1144.4,318.1L1144.4,318.1z M1144.4,318.1L1144.4,318.1L1144.4,318.1
			L1144.4,318.1L1144.4,318.1z M1144.4,318.1L1144.4,318.1L1144.4,318.1L1144.4,318.1L1144.4,318.1z M1144.4,318.1L1144.4,318.1
			L1144.4,318.1L1144.4,318.1L1144.4,318.1z M1144.4,318.1L1144.4,318.1L1144.4,318.1L1144.4,318.1L1144.4,318.1z M1144.4,318.1
			L1144.4,318.1L1144.4,318.1L1144.4,318.1L1144.4,318.1z M1144.4,318.1L1144.4,318.1L1144.4,318.1L1144.4,318.1L1144.4,318.1z
			 M1144.4,318.1L1144.4,318.1L1144.4,318.1L1144.4,318.1L1144.4,318.1z M1144.4,318.1L1144.4,318.1L1144.4,318.1L1144.4,318.1
			L1144.4,318.1z M1144.4,318.1L1144.4,318.1L1144.4,318.1L1144.4,318.1L1144.4,318.1z M1144.4,318.1L1144.4,318.1L1144.4,318.1
			L1144.4,318.1L1144.4,318.1z M1144.4,318.1L1144.4,318.1L1144.4,318.1L1144.4,318.1L1144.4,318.1z M1144.4,318.1L1144.4,318.1
			L1144.4,318.1L1144.4,318.1L1144.4,318.1z M1144.4,318.1L1144.4,318.1L1144.4,318.1L1144.4,318.1L1144.4,318.1z M1144.4,318.1
			L1144.4,318.1L1144.4,318.1L1144.4,318.1L1144.4,318.1z M1144.4,318.1L1144.4,318.1L1144.4,318.1L1144.4,318.1L1144.4,318.1z
			 M1144.4,318.1L1144.4,318.1L1144.4,318.1L1144.4,318.1L1144.4,318.1z M1144.4,318.1L1144.4,318.1L1144.4,318.1L1144.4,318.1
			L1144.4,318.1z M1144.4,318.1L1144.4,318.1L1144.4,318.1L1144.4,318.1L1144.4,318.1z M1144.4,318.1L1144.4,318.1L1144.4,318.1
			L1144.4,318.1L1144.4,318.1z M1144.4,318.1L1144.4,318.1L1144.4,318.1L1144.4,318.1L1144.4,318.1z M1144.4,318.1L1144.4,318.1
			L1144.4,318.1L1144.4,318.1L1144.4,318.1z M1144.4,318.1L1144.4,318.1L1144.4,318.1L1144.4,318.1L1144.4,318.1z M1144.4,318.1
			L1144.4,318.1L1144.4,318.1L1144.4,318.1L1144.4,318.1z M1144.4,318.1L1144.4,318.1L1144.4,318.1L1144.4,318.1z"/>
		<path class="st25" d="M1144.4,318.1L1144.4,318.1L1144.4,318.1L1144.4,318.1L1144.4,318.1L1144.4,318.1L1144.4,318.1L1144.4,318.1
			z M1144.4,318.1L1144.4,318.1L1144.4,318.1L1144.4,318.1z"/>
		<path class="st2" d="M1144.4,318.1L1144.4,318.1L1144.4,318.1L1144.4,318.1L1144.4,318.1z M1144.4,318.1L1144.4,318.1
			L1144.4,318.1L1144.4,318.1L1144.4,318.1z M1144.4,318.1L1144.4,318.1L1144.4,318.1L1144.4,318.1L1144.4,318.1z M1144.4,318.1
			L1144.4,318.1L1144.4,318.1L1144.4,318.1L1144.4,318.1z M1144.4,318.1L1144.4,318.1L1144.4,318.1L1144.4,318.1L1144.4,318.1z
			 M1144.4,318.1L1144.4,318.1L1144.4,318.1L1144.4,318.1L1144.4,318.1z M1144.4,318.1L1144.4,318.1L1144.4,318.1L1144.4,318.1
			L1144.4,318.1z M1144.4,318.1L1144.4,318.1L1144.4,318.1L1144.4,318.1L1144.4,318.1z M1144.4,318.1L1144.4,318.1L1144.4,318.1
			L1144.4,318.1L1144.4,318.1z M1144.4,318.1L1144.4,318.1L1144.4,318.1L1144.4,318.1L1144.4,318.1z M1144.4,318.1L1144.4,318.1
			L1144.4,318.1L1144.4,318.1L1144.4,318.1z M1144.4,318.1L1144.4,318.1L1144.4,318.1L1144.4,318.1L1144.4,318.1z M1144.4,318.1
			L1144.4,318.1L1144.4,318.1L1144.4,318.1L1144.4,318.1z M1144.4,318.1L1144.4,318.1L1144.4,318.1L1144.4,318.1L1144.4,318.1z
			 M1144.4,318.1L1144.4,318.1L1144.4,318.1L1144.4,318.1L1144.4,318.1z M1144.4,318.1L1144.4,318.1L1144.4,318.1L1144.4,318.1
			L1144.4,318.1z M1144.4,318.1L1144.4,318.1L1144.4,318.1L1144.4,318.1L1144.4,318.1z M1144.4,318.1L1144.4,318.1L1144.4,318.1
			L1144.4,318.1L1144.4,318.1z M1144.4,318.1L1144.4,318.1L1144.4,318.1L1144.4,318.1L1144.4,318.1z M1144.4,318.1L1144.4,318.1
			L1144.4,318.1L1144.4,318.1L1144.4,318.1z M1144.4,318.1L1144.4,318.1L1144.4,318.1L1144.4,318.1L1144.4,318.1z M1144.4,318.1
			L1144.4,318.1L1144.4,318.1L1144.4,318.1L1144.4,318.1z M1144.4,318.1L1144.4,318.1L1144.4,318.1L1144.4,318.1L1144.4,318.1z
			 M1144.4,318.1L1144.4,318.1L1144.4,318.1L1144.4,318.1L1144.4,318.1z M1144.4,318.1L1144.4,318.1L1144.4,318.1L1144.4,318.1
			L1144.4,318.1z M1144.4,318.1L1144.4,318.1L1144.4,318.1L1144.4,318.1L1144.4,318.1z M1144.4,318.1L1144.4,318.1L1144.4,318.1
			L1144.4,318.1L1144.4,318.1z M1144.4,318.1L1144.4,318.1L1144.4,318.1L1144.4,318.1L1144.4,318.1z M1144.4,318.1L1144.4,318.1
			L1144.4,318.1L1144.4,318.1L1144.4,318.1z M1144.4,318.1L1144.4,318.1L1144.4,318.1L1144.4,318.1L1144.4,318.1z M1144.4,318.1
			L1144.4,318.1L1144.4,318.1L1144.4,318.1L1144.4,318.1z M1144.4,318.1L1144.4,318.1L1144.4,318.1L1144.4,318.1L1144.4,318.1z
			 M1144.4,318.1L1144.4,318.1L1144.4,318.1L1144.4,318.1L1144.4,318.1z M1144.4,318.1L1144.4,318.1L1144.4,318.1L1144.4,318.1
			L1144.4,318.1z M1144.4,318.1L1144.4,318.1L1144.4,318.1L1144.4,318.1L1144.4,318.1z M1144.4,318.1L1144.4,318.1L1144.4,318.1
			L1144.4,318.1L1144.4,318.1z M1144.4,318.1L1144.4,318.1L1144.4,318.1L1144.4,318.1L1144.4,318.1z M1144.4,318.1L1144.4,318.1
			L1144.4,318.1L1144.4,318.1L1144.4,318.1z M1144.4,318.1L1144.4,318.1L1144.4,318.1L1144.4,318.1L1144.4,318.1z M1144.4,318.1
			L1144.4,318.1L1144.4,318.1L1144.4,318.1L1144.4,318.1z M1144.4,318.1L1144.4,318.1L1144.4,318.1L1144.4,318.1L1144.4,318.1z
			 M1144.4,318.1L1144.4,318.1L1144.4,318.1L1144.4,318.1L1144.4,318.1z M1144.4,318.1L1144.4,318.1L1144.4,318.1L1144.4,318.1
			L1144.4,318.1z M1144.4,318.1L1144.4,318.1L1144.4,318.1L1144.4,318.1L1144.4,318.1z M1144.4,318.1L1144.4,318.1L1144.4,318.1
			L1144.4,318.1L1144.4,318.1z M1144.4,318.1L1144.4,318.1L1144.4,318.1L1144.4,318.1L1144.4,318.1z M1144.4,318.1L1144.4,318.1
			L1144.4,318.1L1144.4,318.1L1144.4,318.1z M1144.4,318.1L1144.4,318.1L1144.4,318.1L1144.4,318.1L1144.4,318.1z M1144.4,318.1
			L1144.4,318.1L1144.4,318.1L1144.4,318.1L1144.4,318.1z M1144.4,318.1L1144.4,318.1L1144.4,318.1L1144.4,318.1L1144.4,318.1z
			 M1144.4,318.1L1144.4,318.1L1144.4,318.1L1144.4,318.1L1144.4,318.1z M1144.4,318.1L1144.4,318.1L1144.4,318.1L1144.4,318.1
			L1144.4,318.1z M1144.4,318.1L1144.4,318.1L1144.4,318.1L1144.4,318.1L1144.4,318.1z M1144.4,318.1L1144.4,318.1L1144.4,318.1
			L1144.4,318.1L1144.4,318.1z M1144.4,318.1L1144.4,318.1L1144.4,318.1L1144.4,318.1L1144.4,318.1z M1144.4,318.1L1144.4,318.1
			L1144.4,318.1L1144.4,318.1L1144.4,318.1z M1144.4,318.1L1144.4,318.1L1144.4,318.1L1144.4,318.1L1144.4,318.1L1144.4,318.1
			L1144.4,318.1L1144.4,318.1z M1144.4,318.1L1144.4,318.1L1144.4,318.1L1144.4,318.1L1144.4,318.1z M1144.4,318.1L1144.4,318.1
			L1144.4,318.1L1144.4,318.1L1144.4,318.1z M1144.4,318.1L1144.4,318.1L1144.4,318.1L1144.4,318.1L1144.4,318.1z M1144.4,318.1
			L1144.4,318.1L1144.4,318.1L1144.4,318.1L1144.4,318.1z M1144.4,318.1L1144.4,318.1L1144.4,318.1L1144.4,318.1L1144.4,318.1z
			 M1144.4,318.1L1144.4,318.1L1144.4,318.1L1144.4,318.1L1144.4,318.1z M1144.4,318.1L1144.4,318.1L1144.4,318.1L1144.4,318.1z"/>
		<g>
			<defs>
				<rect id="SVGID_47_" x="1123.4" y="290.1" width="42" height="56"/>
			</defs>
			<clipPath id="SVGID_48_">
				<use xlink:href="#SVGID_47_"  style="overflow:visible;"/>
			</clipPath>
			<g transform="matrix(0.000360892 0 0 0.000360892 1342 515)" class="st32">
				<g>
					<defs>
						<rect id="SVGID_49_" x="1123.4" y="290.6" width="42" height="55"/>
					</defs>
					<clipPath id="SVGID_50_">
						<use xlink:href="#SVGID_49_"  style="overflow:visible;"/>
					</clipPath>
					<g transform="matrix(1 0 0 1.02207 0.0415039 -0.0673162)" class="st33">
						<g transform="scale(3636.81 3636.81)">
							
								<image style="overflow:visible;enable-background:new    ;" width="32" height="41" id="img33" xlink:href="DB775353.png"  transform="matrix(1.781054e-38 0 0 1.781054e-38 1144.3456 311.2949)">
							</image>
						</g>
					</g>
				</g>
			</g>
		</g>
		<g>
			<defs>
				<rect id="SVGID_51_" x="1315.4" y="498.1" width="54" height="34"/>
			</defs>
			<clipPath id="SVGID_52_">
				<use xlink:href="#SVGID_51_"  style="overflow:visible;"/>
			</clipPath>
			<g transform="matrix(0.000360892 0 0 0.000360892 1433 313)" class="st34">
				<g>
					<defs>
						<rect id="SVGID_53_" x="1315.9" y="498.1" width="53" height="34"/>
					</defs>
					<clipPath id="SVGID_54_">
						<use xlink:href="#SVGID_53_"  style="overflow:visible;"/>
					</clipPath>
					<g transform="matrix(1.01324 0 0 1 0.0928844 -0.0178667)" class="st35">
						<g transform="scale(3623.46 3623.46)">
							
								<image style="overflow:visible;enable-background:new    ;" width="40" height="26" id="img36" xlink:href="DB77536D.png"  transform="matrix(6.405335e-42 0 0 6.405335e-42 1324.7802 515.1327)">
							</image>
						</g>
					</g>
				</g>
			</g>
		</g>
		<g>
			<defs>
				<rect id="SVGID_55_" x="1399" y="296.2" width="69" height="34"/>
			</defs>
			<clipPath id="SVGID_56_">
				<use xlink:href="#SVGID_55_"  style="overflow:visible;"/>
			</clipPath>
			<g transform="matrix(0.000360892 0 0 0.000360892 1791 313)" class="st36">
				<g>
					<defs>
						<rect id="SVGID_57_" x="1399.5" y="296.2" width="68" height="34"/>
					</defs>
					<clipPath id="SVGID_58_">
						<use xlink:href="#SVGID_57_"  style="overflow:visible;"/>
					</clipPath>
					<g transform="matrix(1.00001 0 0 1 0.0653187 -0.0178667)" class="st37">
						<g transform="scale(3623.46 3623.46)">
							
								<image style="overflow:visible;enable-background:new    ;" width="52" height="26" id="img39" xlink:href="DB77536F.png"  transform="matrix(2.802597e-45 0 0 2.802597e-45 1433.4049 313.2038)">
							</image>
						</g>
					</g>
				</g>
			</g>
		</g>
		<path d="M1791.5,313.1L1791.5,313.1L1791.5,313.1L1791.5,313.1L1791.5,313.1L1791.5,313.1L1791.5,313.1L1791.5,313.1z
			 M1791.5,313.1L1791.5,313.1L1791.5,313.1L1791.5,313.1z"/>
		<g>
			<defs>
				<rect id="SVGID_59_" x="1777" y="288.6" width="29" height="49"/>
			</defs>
			<clipPath id="SVGID_60_">
				<use xlink:href="#SVGID_59_"  style="overflow:visible;"/>
			</clipPath>
			<g transform="matrix(0.000360892 0 0 0.000360892 1136 401)" class="st38">
				<g>
					<defs>
						<rect id="SVGID_61_" x="1777" y="288.6" width="29" height="49"/>
					</defs>
					<clipPath id="SVGID_62_">
						<use xlink:href="#SVGID_61_"  style="overflow:visible;"/>
					</clipPath>
					<g transform="matrix(1 0 0 1.00466 -0.110973 0.0309614)" class="st39">
						<g transform="scale(3652.55 3652.55)">
							
								<image style="overflow:visible;enable-background:new    ;" width="22" height="37" id="img42" xlink:href="DB775372.png"  transform="matrix(0 0 0 0 1791.6284 311.6299)">
							</image>
						</g>
					</g>
				</g>
			</g>
		</g>
	</g>
</g>
</svg>
